HIERARCHY
ROOT hip
{
	OFFSET 0.000000 0.000000 0.000000 
	CHANNELS 6 Xposition Yposition Zposition Xrotation Zrotation Yrotation
	JOINT abdomen
	{
		OFFSET 0.000000 3.402643 0.000000 
		CHANNELS 3 Xrotation Zrotation Yrotation
		JOINT chest
		{
			OFFSET 0.000000 8.438565 -0.680529 
			CHANNELS 3 Xrotation Zrotation Yrotation
			JOINT neck
			{
				OFFSET 0.000000 10.207942 -0.272212 
				CHANNELS 3 Xrotation Zrotation Yrotation
				JOINT head
				{
					OFFSET 0.000000 3.130431 0.000000 
					CHANNELS 3 Xrotation Zrotation Yrotation
					End Site
					{
						OFFSET 0.000000 3.130435 0.000000 
					}
				}
			}
			JOINT lCollar
			{
				OFFSET 3.470700 6.669187 -0.816635 
				CHANNELS 3 Yrotation Zrotation Xrotation
				JOINT lShldr
				{
					OFFSET 3.198488 0.000000 0.000000 
					CHANNELS 3 Zrotation Yrotation Xrotation
					JOINT lForeArm
					{
						OFFSET 10.139888 0.000000 0.000000 
						CHANNELS 3 Yrotation Zrotation Xrotation
						JOINT lHand
						{
							OFFSET 8.370511 0.000000 0.000000 
							CHANNELS 3 Zrotation Yrotation Xrotation
							End Site
							{
								OFFSET 4.083176 0.000000 0.000000 
							}
						}
					}
				}
			}
			JOINT rCollar
			{
				OFFSET -3.470700 6.669187 -0.816635 
				CHANNELS 3 Yrotation Zrotation Xrotation
				JOINT rShldr
				{
					OFFSET -3.198488 0.000000 0.000000 
					CHANNELS 3 Zrotation Yrotation Xrotation
					JOINT rForeArm
					{
						OFFSET -10.139888 0.000000 0.000000 
						CHANNELS 3 Yrotation Zrotation Xrotation
						JOINT rHand
						{
							OFFSET -8.370511 0.000000 0.000000 
							CHANNELS 3 Zrotation Yrotation Xrotation
							End Site
							{
								OFFSET -4.083176 0.000000 0.000000 
							}
						}
					}
				}
			}
		}
	}
	JOINT lThigh
	{
		OFFSET 5.308129 -1.633274 1.361059 
		CHANNELS 3 Xrotation Zrotation Yrotation
		JOINT lShin
		{
			OFFSET -2.041588 -20.007561 0.000000 
			CHANNELS 3 Xrotation Zrotation Yrotation
			JOINT lFoot
			{
				OFFSET 0.000000 -19.190928 -1.224953 
				CHANNELS 3 Xrotation Yrotation Zrotation
				End Site
				{
					OFFSET 0.000000 -2.449906 4.627600 
				}
			}
		}
	}
	JOINT rThigh
	{
		OFFSET -5.308129 -1.633274 1.361059 
		CHANNELS 3 Xrotation Zrotation Yrotation
		JOINT rShin
		{
			OFFSET 2.041588 -20.007561 0.000000 
			CHANNELS 3 Xrotation Zrotation Yrotation
			JOINT rFoot
			{
				OFFSET 0.000000 -19.190928 -1.224953 
				CHANNELS 3 Xrotation Yrotation Zrotation
				End Site
				{
					OFFSET 0.000000 -2.449906 4.627600 
				}
			}
		}
	}
}
MOTION
Frames: 8
Frame Time: 0.033333
-4.093020 50.128864 -6.463767 10.680606 6.305766 0.181176 0.000000 0.000000 0.000000 -2.794069 -5.052611 5.402422 27.564569 -8.263483 -0.729487 -23.897631 0.452992 10.756336 0.457291 12.068437 24.559963 -86.797836 9.589019 -4.928475 -44.079853 -0.377701 70.613342 -6.323679 -11.379743 -61.827869 1.677977 -17.964308 25.000000 75.962929 24.311584 76.298271 45.732643 -44.816357 86.374603 30.523207 15.226937 -78.642555 -18.734291 7.211635 18.321072 45.241478 3.981179 -1.084051 -5.688876 2.698249 -11.076200 -13.851209 -7.594417 -0.666751 41.334538 -1.367009 2.468275 -14.617061 -5.722005 7.383403 
-4.085638 50.082710 -6.585641 12.000512 6.831284 1.077429 0.000000 0.000000 0.000000 -3.717807 -5.418328 5.341136 27.432117 -8.464320 -0.744551 -23.349684 0.116003 10.337802 -0.259922 12.381497 24.730577 -85.792450 8.905788 -5.445410 -45.176155 -0.553552 75.912025 -7.392723 -10.417363 -61.591251 1.163142 -19.113617 24.860830 75.493477 26.039392 75.714310 46.046337 -43.599655 84.997612 31.164261 14.536052 -78.761162 -22.626829 6.298905 17.546444 48.674789 4.523147 -1.124628 -3.634246 2.914330 -16.002594 -15.584502 -8.573477 -0.906958 41.902630 -0.908202 2.631425 -15.930302 -6.296954 3.275910 
-4.072711 50.093048 -6.544586 11.850056 7.102821 0.744668 0.000000 0.000000 0.000000 -3.374645 -5.449575 5.330099 27.303503 -9.056866 -0.785870 -23.292595 0.538927 10.650950 -0.422784 11.995337 24.773878 -84.613937 8.798152 -6.064541 -44.135414 -0.050084 73.906067 -8.168772 -10.309518 -61.410820 1.839850 -19.865902 25.000000 75.277740 28.083925 75.144432 42.586445 -43.000957 78.834312 32.409145 13.337541 -79.025162 -23.832933 5.827225 17.240730 50.683247 4.089315 -1.327256 -3.758654 1.595973 -15.733262 -15.418623 -8.700678 -0.957041 41.861671 -0.986220 2.611524 -16.387648 -6.312346 1.840756 
-4.006978 50.156487 -6.438393 11.283057 7.260817 -0.322378 0.000000 0.000000 0.000000 -2.726026 -5.189466 5.373577 27.286777 -10.063990 -0.862772 -23.463858 1.117265 11.087350 0.003530 11.367050 24.673506 -83.812515 8.857404 -6.491419 -42.281914 1.058250 69.559502 -8.236979 -10.713794 -61.369358 3.342751 -20.316841 25.000000 74.965790 30.152597 74.536430 38.514366 -42.940990 73.801697 33.409466 12.269832 -79.259544 -23.933012 5.174217 17.042904 51.559608 3.550774 -1.461601 -5.528258 0.641751 -13.480873 -14.763239 -8.514347 -0.923552 41.598251 -1.337739 2.505901 -16.286428 -5.728953 1.705523 
-3.851542 50.242592 -6.289954 10.825721 7.483175 -1.414616 0.000000 0.000000 0.000000 -2.087924 -4.967420 5.414567 27.131315 -11.092003 -0.936344 -23.701397 1.345511 11.288061 0.382714 10.610267 24.593660 -83.345451 9.007590 -6.744426 -40.592949 2.465710 64.672798 -7.754944 -11.432961 -61.416527 4.474232 -20.740719 25.000000 74.659309 32.056103 73.970802 34.475304 -42.813225 69.256447 33.889275 10.743822 -79.568367 -23.620892 3.827022 16.660412 51.193878 3.286787 -1.501420 -8.258039 0.523400 -10.631383 -14.126863 -8.688989 -1.002718 41.210270 -1.562575 2.424468 -15.984849 -4.863715 2.107410 
-3.611990 50.301064 -6.100205 10.717352 7.869894 -2.323378 0.000000 0.000000 0.000000 -1.754616 -4.958623 5.405047 26.792965 -11.946472 -0.997894 -23.856140 1.236068 11.342961 0.661440 10.023087 24.531124 -82.987640 9.211059 -6.929814 -39.430122 3.518710 60.636440 -6.909774 -12.260597 -61.550159 4.933812 -21.390587 25.000000 74.502548 33.705021 73.517166 30.823507 -42.618801 64.328430 33.983921 9.094662 -79.901230 -23.218685 1.824665 16.140625 49.780067 3.240579 -1.438416 -11.113656 1.108500 -8.202332 -13.806614 -9.344493 -1.220961 40.799519 -1.601518 2.380177 -15.792849 -3.901634 2.409160 
-3.303254 50.309673 -5.862520 10.931736 8.488053 -3.043898 0.000000 0.000000 0.000000 -1.755473 -5.270977 5.346183 26.375376 -12.611658 -1.039664 -23.902670 1.054215 11.388962 0.903816 9.644110 24.485842 -82.469879 9.500517 -7.223274 -38.973713 3.802763 58.317776 -6.071308 -12.931362 -61.720806 5.008569 -22.130093 25.000000 74.271698 35.028027 73.107399 27.726704 -42.516754 58.824589 33.884171 7.891850 -80.142509 -22.822294 -0.604871 15.488873 47.748676 3.216682 -1.357283 -13.438870 1.998426 -7.007564 -13.795902 -10.476280 -1.566642 40.559166 -1.542602 2.345503 -15.873528 -2.790580 2.420003 
-2.918108 50.320976 -5.575720 11.040469 9.453943 -3.612883 0.000000 0.000000 0.000000 -1.620158 -5.983953 5.187556 25.973577 -13.148660 -1.086616 -24.058367 1.003051 11.154029 0.884080 8.981942 24.508924 -81.506798 9.987732 -7.761277 -39.706871 3.654547 58.054981 -6.086026 -13.205953 -61.691807 5.116328 -22.189342 25.000000 73.072418 35.905537 72.400238 25.079987 -42.415638 53.569180 33.300095 6.876774 -80.356918 -22.413002 -3.399920 14.797548 46.067554 3.219110 -1.278564 -15.008385 2.828678 -7.715281 -13.775335 -12.135017 -2.098412 40.589104 -1.523155 2.353129 -16.334236 -1.301458 2.461849 
